<svg xmlns="http://www.w3.org/2000/svg" width="1024" height="1024" viewBox="0 0 1024 1024" fill="none">
  <rect width="1024" height="1024" rx="228" ry="228" fill="#0E223D"/>
  <g transform="translate(59 58) scale(2.2)">
    <path d="M206.39 366.5H206.432C248.833 366.5 288.736 349.894 318.791 319.734C348.858 289.586 365.412 249.553 365.412 207.006V195.718H239.514L239.386 195.407L238.717 193.771V193.77C233.332 180.528 220.646 171.975 206.39 171.975C187.132 171.975 171.464 187.688 171.464 207C171.464 226.323 187.132 242.042 206.39 242.042C220.389 242.042 232.903 233.759 238.458 220.879L238.717 220.263L239.383 218.629L239.51 218.317H278.351L278.225 218.92L277.555 222.106C275.123 233.689 269.821 244.61 262.168 253.796L261.42 254.679C261.34 254.777 261.259 254.874 261.164 254.979L260.813 255.354C246.999 270.995 227.163 279.971 206.39 279.971C172.198 279.971 142.272 255.635 135.22 222.111V222.11C134.172 217.116 133.641 212.03 133.641 207C133.641 202.294 134.108 197.54 135.029 192.857L135.22 191.922C138.574 175.922 147.456 161.257 160.226 150.619L160.228 150.617C173.301 139.822 189.691 133.878 206.373 133.878C223.612 133.878 240.371 140.094 253.565 151.368L253.566 151.369L254.823 152.448H285.369L279.099 145.04C264.104 127.293 243.292 115.674 220.578 112.337L220.565 112.335L220.553 112.332L218.062 111.836L217.66 111.756V47.502L206.344 47.5283H206.343C118.681 47.5284 47.3624 119.069 47.3623 207.006C47.3623 209.327 47.4121 211.653 47.5215 214.052L47.7266 218.334L110.801 218.317H111.233L111.296 218.744L111.628 221.005V221.006C117.692 262.644 150.929 295.973 192.442 302.041L194.763 302.374L195.192 302.436V366.161L199.484 366.349C201.821 366.451 204.127 366.5 206.39 366.5ZM217.66 302.438L218.087 302.374L220.338 302.041L220.339 302.04C261.85 295.962 295.083 262.639 301.146 221.012V221.011L301.479 218.744L301.541 218.317H342.434L342.374 218.87L342.06 221.792C335.244 285.232 284.386 336.237 221.124 343.079H221.123L218.214 343.39L217.66 343.448V302.438ZM195.117 111.569L194.69 111.632L192.439 111.966H192.438C150.913 118.044 117.681 151.373 111.628 193.011V193.012L111.296 195.278L111.233 195.705H70.3486L70.4082 195.152L70.7236 192.227C77.5612 128.775 128.419 77.7629 191.657 70.9316H191.658L194.575 70.623L195.128 70.5645L195.127 71.1201L195.117 111.138V111.569Z" fill="#FFFFFF"/>
    <path d="M365.424 170.947V47.5098H241.836V74.2422C288.468 86.8468 325.893 124.25 338.635 170.947H365.424Z" fill="#2FA8FF"/>
  </g>
</svg>
