<?xml version="1.0" encoding="UTF-8"?>
<svg xmlns="http://www.w3.org/2000/svg" viewBox="0 0 1920 462.05" role="img" aria-label="Wingxtra Aerospace logo">
  <path d="M438.75,338.84h32.15V111.43h-32.15v227.41Zm0-269.76h32.15V36.92h-32.15v32.15Zm260.73,42.35h-184.28v227.41h32.15V158.87c0-4.18,1.57-7.77,4.71-10.78,3.15-3,6.79-4.51,10.98-4.51h136.43c4.18,0,7.77,1.51,10.78,4.51,3,3,4.51,6.6,4.51,10.78v179.97h32.15V158.87c0-13.06-4.64-24.24-13.92-33.52-9.27-9.28-20.45-13.92-33.52-13.92Zm267.4,0h-136.45c-13.07,0-24.24,4.64-33.52,13.92s-13.92,20.45-13.92,33.52v132.53c0,13.07,4.64,24.25,13.92,33.52,9.27,9.28,20.45,13.92,33.52,13.92h151.74v41.95c0,4.18-1.51,7.77-4.51,10.78-3,3-6.6,4.51-10.78,4.51h-141.93v32.55h141.91c13.34,0,24.57-4.65,33.73-13.92,9.15-9.28,13.73-20.59,13.73-33.92h.01V158.87c0-13.06-4.58-24.24-13.73-33.52-9.15-9.28-20.39-13.92-33.73-13.92Zm15.3,179.97c0,4.18-1.51,7.77-4.51,10.78-3,3-6.6,4.51-10.78,4.51h-136.45c-4.19,0-7.79-1.51-10.78-4.51-3.02-3-4.51-6.59-4.51-10.78V158.87c0-4.18,1.51-7.77,4.51-10.78,2.99-3,6.59-4.51,10.78-4.51h136.45c4.18,0,7.77,1.51,10.78,4.51,3,3,4.51,6.6,4.51,10.78v132.53Zm302.68-179.97h-41.95l-74.1,86.26-73.72-86.26h-42.35l94.88,111.75-94.88,115.67h42.35l73.72-90.96,74.1,90.96h42.35l-95.28-115.67,94.88-111.75Zm78.61,190.75c-3-3-4.51-6.59-4.51-10.78V143.58h98.42v-32.15h-98.42V36.92h-32.15v254.47c0,13.07,4.56,24.25,13.72,33.52,9.15,9.28,20.4,13.92,33.73,13.92h83.13v-32.15h-83.13c-4.18,0-7.77-1.51-10.78-4.51Zm137.62-176.82c-9.28,9.28-13.92,20.45-13.92,33.52v179.97h32.15V158.87c0-4.18,1.51-7.77,4.51-10.78,3-3,6.59-4.51,10.78-4.51h127.82v-32.15h-127.82c-13.07,0-24.25,4.64-33.52,13.92Zm399.44,10.71c-3.83-7.17-8.93-12.9-15.32-17.21-6.39-4.31-13.52-6.46-21.41-6.46h-163.28v32.07h163.28c3.71,0,6.91,1.51,9.58,4.5,2.66,2.99,4,6.59,4,10.75v50.06h-176.85v82.13c0,8.6,1.92,16.49,5.75,23.66,3.83,7.18,8.93,12.9,15.32,17.21,6.38,4.31,13.41,6.46,21.07,6.46h163.62V159.72c0-8.6-1.92-16.49-5.75-23.66Zm-23.15,171.1h-134.72c-3.71,0-6.9-1.5-9.57-4.5-2.68-2.99-4.01-6.57-4.01-10.75v-50.06h148.3v65.31Z M385.16,37.1c6.86,82.44-21.8,137.23-47.06,168.67-27.4,34.1-56.82,48.9-57.12,49.05l-.07,.04c-10.92,5.94-19.98,6.55-26.94,1.83-29.82-20.25-17.1-128.52-16.55-133.12,.03-.24,.12-.98-.47-1.64l-1.79-2.01-1.37,2.31c-32.06,53.99-21.05,210.14-20.56,216.76l.16,2.22,2.18-.43c49.14-9.78,88.85-31.9,118.04-65.75,23.32-27.05,39.98-61.58,49.51-102.63,16.19-69.73,6.02-135.11,5.92-135.77l-3.9,.47Z" fill="#FFFFFF"/>
  <path d="M170.84,119.91l-1.79,2.01c-.59,.66-.5,1.4-.47,1.64,.56,4.6,13.28,112.87-16.55,133.12-6.95,4.72-16.02,4.1-26.94-1.83l-.07-.04c-.29-.14-29.6-14.85-57-48.9C42.72,174.46,13.99,119.64,20.86,37.1l-3.9-.47c-.1,.65-10.27,66.04,5.92,135.77,9.53,41.05,26.19,75.58,49.51,102.63,29.18,33.84,68.9,55.96,118.04,65.75l2.18,.43,.16-2.22c.48-6.62,11.5-162.77-20.56-216.76l-1.37-2.31Z" fill="#2FA8FF"/>
</svg>
